<svg xmlns="http://www.w3.org/2000/svg" viewBox="0 0 1009.91 1010" id="budget"><path fill="#DAB466" d="M504.955 1010C226.522 1010 0 783.344 0 504.753 0 226.432 226.522 0 504.955 0s504.955 226.432 504.955 504.753c0 278.59-226.522 505.247-504.955 505.247zm0-897.77c-216.547 0-392.747 176.066-392.747 392.523 0 216.705 176.2 393.017 392.747 393.017 216.569 0 392.748-176.312 392.748-393.017 0-216.457-176.18-392.523-392.748-392.523z"></path><path fill="#545454" d="M646.414 684.204c-27.234 26.629-65.026 42.946-113.665 49.134v60.115h-53.884v-58.66c-43.104-4.393-77.958-18.2-104.946-41.488-26.762-23.31-43.977-56.148-51.396-98.446l97.279-9.212c3.923 17.328 11.499 32.3 22.437 44.65 10.938 12.53 23.221 21.607 36.626 26.92V522.395c-48.887-12.261-84.503-30.35-107.411-54.647-22.818-24.678-34.07-54.153-34.07-89.143 0-35.28 13-65.047 38.508-88.94 25.822-23.984 60.07-37.769 102.973-41.445v-31.717h53.884v31.717c39.651 4.056 70.987 15.802 94.41 34.988 23.58 19.367 38.284 45.211 44.74 77.264l-94.186 10.646c-5.693-25.17-20.555-42.43-44.964-51.485V445.67c59.757 13.986 100.462 32.344 122.048 54.355 21.741 22.504 32.612 50.88 32.612 85.624 0 39.159-13.763 71.77-40.995 98.556zM430.472 374.75c0 11.566 4.348 22.123 12.17 31.807 7.8 9.682 19.95 17.819 36.223 23.736v-111.58c-14.817 4.215-26.36 11.566-35.147 21.81-8.674 10.333-13.246 21.92-13.246 34.227zm102.277 161.452v125.79c18.805-3.071 33.802-10.512 45.636-22.527 11.61-11.99 17.53-25.978 17.53-41.982 0-14.524-4.844-26.875-14.638-37.297-9.93-10.333-26.114-18.537-48.528-23.984z"></path></svg>